<svg id="Layer_1" data-name="Layer 1" xmlns="http://www.w3.org/2000/svg" viewBox="0 0 26 26"><defs><style>.cls-1{fill:#52d691;}</style></defs><path class="cls-1" d="M15.71,14.37c0-.45-.21-.79-.68-.79s-.66.38-.68.8a9.14,9.14,0,0,0,0,1.48c.1.88-.29,1.14-1.1,1.07a13.77,13.77,0,0,0-2.13,0c-.67,0-.83-.21-.82-.85,0-2.62,0-5.24,0-7.86a2.33,2.33,0,0,0-.67-2h3c2,0,1.7-.19,1.72,1.68,0,.24,0,.49,0,.74,0,.45.16.88.73.85s.63-.4.63-.83,0-1.06,0-1.59c0-1.6-.65-2.24-2.27-2.25-2,0-4,0-6,0C5.58,4.82,5,5.44,5,7.24,5,10.15,5,13.05,5,16c0,3.85-.13,3.3,3.19,5,1.27.64,2.23.07,2.13-1.36-.08-1.17.35-1.51,1.41-1.34.18,0,.36,0,.53,0,3.8.23,3.52-.94,3.5-3.65ZM9,19.86c-.83-.41-1.48-.74-2.15-1.06A.82.82,0,0,1,6.36,18q0-5.26,0-10.51c0-.8.33-.89,1-.6C9,7.54,9,7.52,9,9.28Z"/><path class="cls-1" d="M9.1,21.25a2.24,2.24,0,0,1-1-.27l-1-.5C4.9,19.4,4.88,19.37,4.9,16.34V16c0-1.62,0-3.26,0-4.86V7.24c0-1.82.66-2.47,2.49-2.48h6.05c1.63,0,2.31.68,2.32,2.31q0,.81,0,1.59c0,.56-.24.86-.69.88-.63,0-.75-.46-.78-.9a4.13,4.13,0,0,1,0-.5V7.33c0-.52,0-.8-.12-.93s-.43-.13-1-.13H9.78a2.45,2.45,0,0,1,.58,2c0,1.15,0,2.32,0,3.45,0,1.45,0,2.94,0,4.41,0,.36,0,.56.17.67a.72.72,0,0,0,.6.12,15.14,15.14,0,0,1,2.13,0,1.11,1.11,0,0,0,.89-.2,1,1,0,0,0,.16-.81,9.39,9.39,0,0,1,0-1.5c0-.53.3-.84.74-.84h0c.45,0,.71.3.72.84v.21c0,.18,0,.36,0,.52,0,1.24,0,2.14-.52,2.66s-1.4.62-3,.53H12a1.61,1.61,0,0,1-.31,0,1.32,1.32,0,0,0-1.1.16,1.36,1.36,0,0,0-.26,1.12,1.56,1.56,0,0,1-.55,1.5A1.25,1.25,0,0,1,9.1,21.25ZM10.61,4.86H7.39C5.62,4.88,5,5.48,5,7.25v9.09c0,3,0,3,2.16,4.05l1,.49A1.55,1.55,0,0,0,9.71,21a1.5,1.5,0,0,0,.51-1.4,1.42,1.42,0,0,1,.29-1.21,1.36,1.36,0,0,1,1.18-.19,1.48,1.48,0,0,0,.3,0h.23c1.61.09,2.49-.05,3-.5s.5-1.36.48-2.57v-.53a1.28,1.28,0,0,0,0-.19v0c0-.27-.09-.73-.61-.73h0c-.51,0-.61.46-.63.74a8.13,8.13,0,0,0,0,1.48,1.1,1.1,0,0,1-.2.9,1.19,1.19,0,0,1-1,.23,13.51,13.51,0,0,0-2.11,0,.9.9,0,0,1-.69-.15,1,1,0,0,1-.2-.75c0-1.47,0-3,0-4.41,0-1.13,0-2.3,0-3.45a2.26,2.26,0,0,0-.64-2L9.5,6.17h3.63c.65,0,.94,0,1.11.16s.15.44.15,1v.82a3.84,3.84,0,0,0,0,.48c0,.59.24.83.68.8s.57-.27.58-.77,0-1,0-1.59c0-1.57-.64-2.19-2.22-2.2ZM9.05,19.94l-.08,0-.72-.36-1.43-.7a.86.86,0,0,1-.51-.9c0-3.32,0-6.89,0-10.51,0-.39.08-.63.25-.74s.43-.09.83.09l0,0c1.6.69,1.62.71,1.62,2.47ZM6.8,6.74a.36.36,0,0,0-.19,0c-.14.09-.2.3-.2.65,0,3.62,0,7.19,0,10.51a.77.77,0,0,0,.46.8l1.43.71.64.31V9.28c0-1.71,0-1.71-1.56-2.37l0,0A1.48,1.48,0,0,0,6.8,6.74Z"/><path class="cls-1" d="M18.16,8.12a1,1,0,0,0-.95-.32.85.85,0,0,0-.58.83,9,9,0,0,0,0,1.37c.05.65-.19.88-.85.86-.91,0-1.83,0-2.75,0-.44,0-.88.15-.84.73s.42.61.84.62h1.49c2,0,2,0,2.1,2,0,.44.07.85.56,1s.8-.11,1.1-.42c.79-.82,1.57-1.64,2.36-2.44a1.06,1.06,0,0,0,0-1.67ZM18,13.05V10C20.07,11.87,19.76,11.36,18,13.05Z"/><path class="cls-1" d="M17.46,15.36a.94.94,0,0,1-.31-.06c-.54-.2-.57-.67-.59-1.08-.13-2-.13-2-2-2H13c-.21,0-.84,0-.89-.67a.63.63,0,0,1,.15-.52,1,1,0,0,1,.74-.27c.76,0,1.76-.05,2.76,0a.82.82,0,0,0,.65-.16.76.76,0,0,0,.13-.63,9.08,9.08,0,0,1,0-1.38.9.9,0,0,1,.62-.88,1.08,1.08,0,0,1,1,.34c.89.91,1.69,1.74,2.5,2.59a1.11,1.11,0,0,1,0,1.74c-.52.53-1.05,1.08-1.55,1.61l-.81.83A1.23,1.23,0,0,1,17.46,15.36Zm-3-3.19c2,0,2,0,2.15,2,0,.47.09.82.53,1s.71-.07,1-.41L19,14l1.55-1.6a1,1,0,0,0,0-1.59l-2.5-2.6h0a1,1,0,0,0-.9-.3.79.79,0,0,0-.54.77,10.45,10.45,0,0,0,0,1.37.86.86,0,0,1-.16.71,1,1,0,0,1-.74.2c-1,0-2,0-2.75,0a.88.88,0,0,0-.66.23.52.52,0,0,0-.12.44c0,.39.27.56.78.57h1.49Zm3.45,1V9.92l.09.08.38.33c.73.65,1.06.94,1.06,1.23s-.23.45-.66.82l-.78.71Zm.11-3v2.77c.27-.26.5-.46.69-.63.4-.35.63-.55.63-.74s-.35-.54-1-1.15Z"/></svg>