<svg id="Layer_1" data-name="Layer 1" xmlns="http://www.w3.org/2000/svg" viewBox="0 0 26 26"><defs><style>.cls-1{fill:#52d691;stroke:#52d691;stroke-miterlimit:10;stroke-width:0.5px;}</style></defs><path class="cls-1" d="M23.88,13.92h0c-.19-.49-.39-1-.57-1.46a.3.3,0,0,0-.33-.23H12.08a.32.32,0,0,0-.35.25c-.15.41-.3.82-.48,1.21a2.22,2.22,0,0,0-.17,1c0,2,0,4,0,6,0,.27.07.35.34.35H23.75c.17,0,.25,0,.25-.22,0-2.23,0-4.46,0-6.69C23.93,14,23.88,14,23.88,13.92Zm-11.42-.76c.06-.18.2-.16.34-.16h9.49a.28.28,0,0,1,.33.22,4,4,0,0,0,.21.61c.11.24,0,.3-.21.3H12.13C12.25,13.78,12.36,13.47,12.46,13.16Zm10.44,7c-1.79,0-3.58,0-5.38,0H12.17c-.23,0-.33,0-.32-.29,0-.58,0-1.15,0-1.73,0-.2.07-.26.26-.26q5.42,0,10.84,0c.22,0,.27.08.26.28,0,.57,0,1.14,0,1.7C23.22,20.14,23.14,20.2,22.9,20.19Zm0-3H12.17c-.24,0-.33-.06-.32-.31,0-.55,0-1.11,0-1.66,0-.2,0-.29.27-.28H23c.23,0,.27.09.26.28,0,.56,0,1.11,0,1.67C23.23,17.1,23.13,17.15,22.9,17.15Z"/><path class="cls-1" d="M9.92,18.68c-1.52,0-3,.11-4.57-.06-2-.24-2.78-1.42-2.54-3.21a4.39,4.39,0,0,1,3.72-3.84c.67-.1.83-.35,1-.94a6.25,6.25,0,0,1,9.62-3.75,6.18,6.18,0,0,1,2.68,4.33c0,.18.07.26.27.26.52,0,.52,0,.47-.5,0-.05,0-.11,0-.16a6.94,6.94,0,0,0-4-5.14,6.63,6.63,0,0,0-4.29-.5,6.87,6.87,0,0,0-5.52,5.35.31.31,0,0,1-.29.27A5.29,5.29,0,0,0,2,16.37a3,3,0,0,0,1.54,2.5,4.3,4.3,0,0,0,2,.55c.74,0,1.48,0,2.22,0H10.1c.09,0,.23,0,.24-.09a1.41,1.41,0,0,0,0-.58C10.27,18.59,10.06,18.69,9.92,18.68Z"/><path class="cls-1" d="M13.13,6.55l-.38.06A5.51,5.51,0,0,0,8.19,10.9c0,.09-.11.21.07.22s.25.07.28-.11l.06-.23A5.13,5.13,0,0,1,13.14,7c.16,0,.23,0,.23-.22S13.26,6.54,13.13,6.55Z"/><path class="cls-1" d="M24,14.07a.4.4,0,0,0-.1-.15h0C23.88,14,23.93,14,24,14.07Z"/><path class="cls-1" d="M21.66,18.67c-.33,0-.35.13-.36.39s.07.43.37.35.45,0,.43-.32S22.09,18.7,21.66,18.67Z"/><path class="cls-1" d="M21.68,15.62c-.31,0-.44.09-.35.4-.1.36.08.4.39.41s.37-.11.38-.41S22,15.62,21.68,15.62Z"/></svg>